<svg xmlns="http://www.w3.org/2000/svg" viewBox="0 0 1400 1000" font-family="'Segoe UI','Helvetica Neue',Helvetica,sans-serif">
  <defs>
    <style>
      .title{fill:#0F1A4D;font-weight:700}
      .sub{fill:#5A6178}
      .band{fill:#0F1A4D;font-weight:700;font-size:13px;letter-spacing:1.5px}
      .box{fill:#FFFFFF;stroke:#D8DDEA;stroke-width:1.5}
      .lbl{fill:#16203F;font-weight:600}
      .mut{fill:#6B7390;font-weight:400}
      .chip{fill:#FFFFFF;stroke-width:1.5}
      .chiptxt{fill:#16203F;font-weight:600;font-size:12.5px}
      .railtitle{fill:#FFFFFF;font-weight:700;font-size:13px;letter-spacing:1px}
      .flow{stroke:#9AA3BE;stroke-width:2;fill:none;marker-end:url(#arr)}
    </style>
    <filter id="sh" x="-20%" y="-20%" width="140%" height="140%">
      <feDropShadow dx="0" dy="2" stdDeviation="3" flood-color="#0F1A4D" flood-opacity="0.10"/>
    </filter>
    <marker id="arr" viewBox="0 0 10 10" refX="8" refY="5" markerWidth="7" markerHeight="7" orient="auto-start-reverse">
      <path d="M0 0L10 5L0 10z" fill="#9AA3BE"/>
    </marker>
    <linearGradient id="railL" x1="0" y1="0" x2="0" y2="1">
      <stop offset="0" stop-color="#1E49C9"/><stop offset="1" stop-color="#12175C"/>
    </linearGradient>
    <linearGradient id="railR" x1="0" y1="0" x2="0" y2="1">
      <stop offset="0" stop-color="#7C3AED"/><stop offset="1" stop-color="#4C1D95"/>
    </linearGradient>
  </defs>

  <rect width="1400" height="1000" fill="#F6F8FC"/>

  <!-- Title -->
  <text x="40" y="46" class="title" font-size="27">Airbnb Investment Intelligence Platform</text>
  <text x="40" y="70" class="sub" font-size="15">Governed multi-agent decision system · Madrid · Barcelona · Málaga &#160;&#160;|&#160;&#160; KPMG Capstone 2026</text>
  <rect x="1006" y="28" width="354" height="34" rx="17" fill="#FDE3F1" stroke="#EA1A8E" stroke-width="1.5"/>
  <text x="1183" y="50" text-anchor="middle" fill="#B0186B" font-weight="700" font-size="13">★ Highlighted blocks = UC2 (built first)</text>

  <!-- ================= LEFT RAIL : MLOps ================= -->
  <rect x="28" y="150" width="158" height="720" rx="16" fill="url(#railL)" filter="url(#sh)"/>
  <text x="107" y="180" text-anchor="middle" class="railtitle">MLOps PIPELINE</text>
  <line x1="48" y1="192" x2="166" y2="192" stroke="#FFFFFF" stroke-opacity="0.25"/>
  <g>
    <rect x="44" y="206" width="126" height="92" rx="10" fill="#FFFFFF" fill-opacity="0.12"/>
    <text x="107" y="234" text-anchor="middle" class="railtitle" font-size="12">MLflow</text>
    <text x="107" y="252" text-anchor="middle" fill="#DDE3FF" font-size="11">tracking +</text>
    <text x="107" y="268" text-anchor="middle" fill="#DDE3FF" font-size="11">model registry</text>
    <text x="107" y="287" text-anchor="middle" fill="#DDE3FF" font-size="11">(versioned)</text>
  </g>
  <g>
    <rect x="44" y="312" width="126" height="74" rx="10" fill="#FFFFFF" fill-opacity="0.12"/>
    <text x="107" y="340" text-anchor="middle" class="railtitle" font-size="12">FastAPI</text>
    <text x="107" y="358" text-anchor="middle" fill="#DDE3FF" font-size="11">model serving</text>
    <text x="107" y="374" text-anchor="middle" fill="#DDE3FF" font-size="11">microservices</text>
  </g>
  <g>
    <rect x="44" y="400" width="126" height="58" rx="10" fill="#FFFFFF" fill-opacity="0.12"/>
    <text x="107" y="425" text-anchor="middle" class="railtitle" font-size="12">Docker</text>
    <text x="107" y="443" text-anchor="middle" fill="#DDE3FF" font-size="11">+ compose</text>
  </g>
  <g>
    <rect x="44" y="472" width="126" height="74" rx="10" fill="#FFFFFF" fill-opacity="0.12"/>
    <text x="107" y="500" text-anchor="middle" class="railtitle" font-size="12">GitHub Actions</text>
    <text x="107" y="518" text-anchor="middle" fill="#DDE3FF" font-size="11">CI/CD + pytest</text>
    <text x="107" y="534" text-anchor="middle" fill="#DDE3FF" font-size="11">build &amp; deploy</text>
  </g>
  <g>
    <rect x="44" y="560" width="126" height="74" rx="10" fill="#FFFFFF" fill-opacity="0.12"/>
    <text x="107" y="588" text-anchor="middle" class="railtitle" font-size="12">Evidently</text>
    <text x="107" y="606" text-anchor="middle" fill="#DDE3FF" font-size="11">data / concept</text>
    <text x="107" y="622" text-anchor="middle" fill="#DDE3FF" font-size="11">drift monitoring</text>
  </g>
  <text x="107" y="700" text-anchor="middle" fill="#C7D0FF" font-size="11" font-style="italic">cross-cutting:</text>
  <text x="107" y="718" text-anchor="middle" fill="#C7D0FF" font-size="11" font-style="italic">spans every</text>
  <text x="107" y="736" text-anchor="middle" fill="#C7D0FF" font-size="11" font-style="italic">layer of the</text>
  <text x="107" y="754" text-anchor="middle" fill="#C7D0FF" font-size="11" font-style="italic">stack</text>

  <!-- ================= RIGHT RAIL : Governance ================= -->
  <rect x="1214" y="150" width="158" height="720" rx="16" fill="url(#railR)" filter="url(#sh)"/>
  <text x="1293" y="174" text-anchor="middle" class="railtitle">GOVERNANCE &amp;</text>
  <text x="1293" y="191" text-anchor="middle" class="railtitle">TRUSTED AI</text>
  <line x1="1234" y1="202" x2="1352" y2="202" stroke="#FFFFFF" stroke-opacity="0.25"/>
  <g font-size="12" fill="#F1E9FF">
    <rect x="1230" y="214" width="126" height="56" rx="10" fill="#FFFFFF" fill-opacity="0.12"/>
    <text x="1293" y="238" text-anchor="middle" class="railtitle" font-size="12">Guardrails</text>
    <text x="1293" y="256" text-anchor="middle">output bounds</text>
    <rect x="1230" y="284" width="126" height="56" rx="10" fill="#FFFFFF" fill-opacity="0.12"/>
    <text x="1293" y="308" text-anchor="middle" class="railtitle" font-size="12">Source</text>
    <text x="1293" y="326" text-anchor="middle">citations (RAG)</text>
    <rect x="1230" y="354" width="126" height="70" rx="10" fill="#FFFFFF" fill-opacity="0.12"/>
    <text x="1293" y="378" text-anchor="middle" class="railtitle" font-size="12">Uncertainty</text>
    <text x="1293" y="396" text-anchor="middle">P10 / P50 / P90</text>
    <text x="1293" y="412" text-anchor="middle">bands</text>
    <rect x="1230" y="438" width="126" height="70" rx="10" fill="#FFFFFF" fill-opacity="0.12"/>
    <text x="1293" y="462" text-anchor="middle" class="railtitle" font-size="12">Human-in-</text>
    <text x="1293" y="480" text-anchor="middle">the-loop gate</text>
    <text x="1293" y="496" text-anchor="middle">"not advice"</text>
    <rect x="1230" y="522" width="126" height="56" rx="10" fill="#FFFFFF" fill-opacity="0.12"/>
    <text x="1293" y="546" text-anchor="middle" class="railtitle" font-size="12">Model cards</text>
    <text x="1293" y="564" text-anchor="middle">+ limitations</text>
    <rect x="1230" y="592" width="126" height="56" rx="10" fill="#FFFFFF" fill-opacity="0.12"/>
    <text x="1293" y="616" text-anchor="middle" class="railtitle" font-size="12">Eval harness</text>
    <text x="1293" y="634" text-anchor="middle">~20 golden Qs</text>
  </g>
  <text x="1293" y="700" text-anchor="middle" fill="#E4D6FF" font-size="11" font-style="italic">= KPMG slide 12:</text>
  <text x="1293" y="718" text-anchor="middle" fill="#E4D6FF" font-size="11" font-style="italic">"Responsible AI /</text>
  <text x="1293" y="736" text-anchor="middle" fill="#E4D6FF" font-size="11" font-style="italic">governance /</text>
  <text x="1293" y="754" text-anchor="middle" fill="#E4D6FF" font-size="11" font-style="italic">human-in-the-loop"</text>

  <!-- ================= CENTER STACK ================= -->
  <!-- connectors (request down / response up) -->
  <path class="flow" d="M690 152 L690 178"/>
  <path class="flow" d="M710 268 L710 152" marker-end="url(#arr)"/>
  <path class="flow" d="M690 256 L690 286"/>
  <path class="flow" d="M690 432 L690 462"/>
  <path class="flow" d="M690 626 L690 656"/>
  <path class="flow" d="M690 730 L690 760"/>

  <!-- USER -->
  <rect x="520" y="100" width="360" height="52" rx="26" fill="#0F1A4D" filter="url(#sh)"/>
  <text x="700" y="125" text-anchor="middle" fill="#FFFFFF" font-weight="700" font-size="15">Individual / small investor</text>
  <text x="700" y="143" text-anchor="middle" fill="#AEB8E0" font-size="12">"I own a flat in Malasaña — Airbnb it, sell it, or rent long-term?"</text>

  <!-- UI LAYER -->
  <rect x="210" y="162" width="980" height="100" rx="14" fill="#EAF0FF" stroke="#C9D6FF" stroke-width="1.5"/>
  <text x="230" y="186" class="band">USER INTERFACE</text>
  <text x="1170" y="186" text-anchor="end" class="mut" font-size="12">Streamlit · conversational chatbot</text>
  <g>
    <rect x="232" y="198" width="244" height="50" rx="10" fill="#FDE3F1" stroke="#EA1A8E" stroke-width="2" filter="url(#sh)"/>
    <text x="354" y="219" text-anchor="middle" fill="#B0186B" font-weight="700" font-size="13">★ UC2 · Own-it optimiser</text>
    <text x="354" y="237" text-anchor="middle" fill="#B0186B" font-size="11">Airbnb vs Sell vs Long-term</text>
    <rect x="486" y="198" width="220" height="50" rx="10" class="box" filter="url(#sh)"/>
    <text x="596" y="219" text-anchor="middle" class="lbl" font-size="13">UC1 · Pre-purchase</text>
    <text x="596" y="237" text-anchor="middle" class="mut" font-size="11">yield screening</text>
    <rect x="716" y="198" width="220" height="50" rx="10" class="box" filter="url(#sh)"/>
    <text x="826" y="219" text-anchor="middle" class="lbl" font-size="13">UC3 · Host engine</text>
    <text x="826" y="237" text-anchor="middle" class="mut" font-size="11">improvement actions</text>
    <rect x="946" y="198" width="222" height="50" rx="10" class="box" filter="url(#sh)"/>
    <text x="1057" y="219" text-anchor="middle" class="lbl" font-size="13">Chat</text>
    <text x="1057" y="237" text-anchor="middle" class="mut" font-size="11">natural-language Q&amp;A</text>
  </g>

  <!-- AGENT LAYER -->
  <rect x="210" y="286" width="980" height="146" rx="14" fill="#EEF4F1" stroke="#C5DED2" stroke-width="1.5"/>
  <text x="230" y="310" class="band">AI AGENT LAYER</text>
  <text x="1170" y="310" text-anchor="end" class="mut" font-size="12">LangGraph orchestration</text>
  <rect x="450" y="318" width="500" height="40" rx="10" fill="#0E7C66" filter="url(#sh)"/>
  <text x="700" y="343" text-anchor="middle" fill="#FFFFFF" font-weight="700" font-size="14">Coordinator agent · routes &amp; aggregates → explainable brief</text>
  <g>
    <rect x="232" y="368" width="300" height="56" rx="10" class="box" filter="url(#sh)"/>
    <text x="382" y="390" text-anchor="middle" class="lbl" font-size="13">Market Analyst</text>
    <text x="382" y="409" text-anchor="middle" class="mut" font-size="11">revenue · yield · benchmark · SHAP "why"</text>
    <rect x="546" y="368" width="290" height="56" rx="10" class="box" filter="url(#sh)"/>
    <text x="691" y="390" text-anchor="middle" class="lbl" font-size="13">Regulatory (RAG)</text>
    <text x="691" y="409" text-anchor="middle" class="mut" font-size="11">VUT / PEUAT rules · licence risk</text>
    <rect x="850" y="368" width="318" height="56" rx="10" class="box" filter="url(#sh)"/>
    <text x="1009" y="390" text-anchor="middle" class="lbl" font-size="13">Comparables (RAG)</text>
    <text x="1009" y="409" text-anchor="middle" class="mut" font-size="11">similar performing listings · semantic + filters</text>
  </g>
  <!-- FAISS -->
  <ellipse cx="1135" cy="336" rx="34" ry="8" fill="#15C2C2"/>
  <path d="M1101 336 v16 a34 8 0 0 0 68 0 v-16" fill="#15C2C2" fill-opacity="0.85"/>
  <text x="1135" y="346" text-anchor="middle" fill="#073B3B" font-weight="700" font-size="11">FAISS</text>

  <!-- ML / ANALYTICS SERVICES -->
  <rect x="210" y="462" width="980" height="164" rx="14" fill="#FFF6E9" stroke="#F2DEB8" stroke-width="1.5"/>
  <text x="230" y="486" class="band">ML &amp; ANALYTICS SERVICES</text>
  <text x="1170" y="486" text-anchor="end" class="mut" font-size="12">trained → logged to MLflow → served via FastAPI</text>
  <g>
    <!-- row 1 -->
    <rect x="232" y="496" width="300" height="56" rx="10" class="box" filter="url(#sh)"/>
    <text x="382" y="517" text-anchor="middle" class="lbl" font-size="12.5">Price model (global)</text>
    <text x="382" y="535" text-anchor="middle" class="mut" font-size="10.5">XGBoost/LightGBM · OLS+VIF/RFE base · SHAP</text>
    <rect x="546" y="496" width="290" height="56" rx="10" class="box" filter="url(#sh)"/>
    <text x="691" y="517" text-anchor="middle" class="lbl" font-size="12.5">Occupancy &amp; seasonality</text>
    <text x="691" y="535" text-anchor="middle" class="mut" font-size="10.5">SF-model estimate · Prophet/ARIMA</text>
    <rect x="850" y="496" width="318" height="56" rx="10" fill="#FDE3F1" stroke="#EA1A8E" stroke-width="2" filter="url(#sh)"/>
    <text x="1009" y="517" text-anchor="middle" fill="#B0186B" font-weight="700" font-size="12.5">★ Financial scenario engine</text>
    <text x="1009" y="535" text-anchor="middle" fill="#B0186B" font-size="10.5">Airbnb vs Sell vs Long-term · break-even</text>
    <!-- row 2 -->
    <rect x="232" y="560" width="300" height="56" rx="10" class="box" filter="url(#sh)"/>
    <text x="382" y="581" text-anchor="middle" class="lbl" font-size="12.5">Segmentation</text>
    <text x="382" y="599" text-anchor="middle" class="mut" font-size="10.5">PCA/FA + K-means → feature &amp; benchmark</text>
    <rect x="546" y="560" width="290" height="56" rx="10" class="box" filter="url(#sh)"/>
    <text x="691" y="581" text-anchor="middle" class="lbl" font-size="12.5">Review NLP + Apriori</text>
    <text x="691" y="599" text-anchor="middle" class="mut" font-size="10.5">TF-IDF/Naïve Bayes · amenity bundles</text>
    <rect x="850" y="560" width="318" height="56" rx="10" fill="#F4F6FB" stroke="#D8DDEA" stroke-width="1.5" filter="url(#sh)"/>
    <text x="1009" y="581" text-anchor="middle" class="lbl" font-size="12.5">Yield calculator (UC1)</text>
    <text x="1009" y="599" text-anchor="middle" class="mut" font-size="10.5">reuses the revenue engine above</text>
  </g>

  <!-- DATA ENGINEERING -->
  <rect x="210" y="656" width="980" height="74" rx="14" fill="#EFF1F6" stroke="#D5DAE7" stroke-width="1.5"/>
  <text x="230" y="680" class="band">DATA ENGINEERING</text>
  <g>
    <rect x="430" y="668" width="226" height="48" rx="10" class="box" filter="url(#sh)"/>
    <text x="543" y="688" text-anchor="middle" class="lbl" font-size="12.5">Loader → ABT</text>
    <text x="543" y="705" text-anchor="middle" class="mut" font-size="10.5">3 cities · shared schema · parquet</text>
    <rect x="666" y="668" width="226" height="48" rx="10" class="box" filter="url(#sh)"/>
    <text x="779" y="688" text-anchor="middle" class="lbl" font-size="12.5">Occupancy estimator</text>
    <text x="779" y="705" text-anchor="middle" class="mut" font-size="10.5">San Francisco model</text>
    <rect x="902" y="668" width="266" height="48" rx="10" fill="#FDF1F8" stroke="#EA9ECB" stroke-width="1.5" filter="url(#sh)"/>
    <text x="1035" y="688" text-anchor="middle" fill="#9B1A66" font-weight="700" font-size="12.5">★ External-data join</text>
    <text x="1035" y="705" text-anchor="middle" fill="#9B1A66" font-size="10.5">district €/m² + long-term rent index</text>
  </g>

  <!-- DATA SOURCES -->
  <rect x="210" y="760" width="980" height="92" rx="14" fill="#E8EBF4" stroke="#CED4E4" stroke-width="1.5"/>
  <text x="230" y="784" class="band">DATA SOURCES</text>
  <g>
    <rect x="232" y="794" width="300" height="46" rx="10" class="box" filter="url(#sh)"/>
    <text x="382" y="814" text-anchor="middle" class="lbl" font-size="12.5">Inside Airbnb</text>
    <text x="382" y="831" text-anchor="middle" class="mut" font-size="10.5">listings · calendar · reviews · geojson</text>
    <rect x="546" y="794" width="290" height="46" rx="10" fill="#FDF1F8" stroke="#EA9ECB" stroke-width="1.5" filter="url(#sh)"/>
    <text x="691" y="814" text-anchor="middle" fill="#9B1A66" font-weight="700" font-size="12.5">★ External market data</text>
    <text x="691" y="831" text-anchor="middle" fill="#9B1A66" font-size="10.5">sale €/m² · long-term rent index</text>
    <rect x="850" y="794" width="318" height="46" rx="10" class="box" filter="url(#sh)"/>
    <text x="1009" y="814" text-anchor="middle" class="lbl" font-size="12.5">Regulatory corpus</text>
    <text x="1009" y="831" text-anchor="middle" class="mut" font-size="10.5">official municipal STR rules (cited)</text>
  </g>

  <!-- footer -->
  <text x="40" y="960" class="mut" font-size="12">Flow: user query → UI → Coordinator routes to agents → agents call ML services → services read the governed data layer. Response returns explainable, source-cited, with uncertainty bands.</text>
  <text x="40" y="980" class="mut" font-size="12" font-style="italic">Prediction uses one global model (segment = feature, not a router). MLOps &amp; Governance rails are cross-cutting across all layers.</text>
</svg>
